<svg xmlns="http://www.w3.org/2000/svg">
    <symbol id="overall" viewBox="0 0 32 32">
        <path fill="none" stroke="#000000" stroke-width="3" stroke-miterlimit="10" d="M28.3,12h-7.6V4.8c0-0.6-0.5-1-1.1-1h-6.5
    c-0.6,0-1.1,0.5-1.1,1v11.4H4.5c-0.6,0-1.1,0.5-1.1,1v11.4c0,0.6,0.5,1,1.1,1h7.6h1.1h7.6v0l7.6,0c0.6,0,1.1-0.5,1.1-1V13.1
    C29.4,12.5,28.9,12,28.3,12z"/>
        <path fill="#FEE600" d="M13.1,29.7H4.5c-0.6,0-1.1-0.5-1.1-1V17.2c0-0.6,0.5-1,1.1-1h8.7V29.7z"/>
        <path fill="#40B549" d="M28.3,29.7l-8.7,0V12h8.7c0.6,0,1.1,0.5,1.1,1v15.6C29.4,29.2,28.9,29.7,28.3,29.7z"/>
        <path fill="#CB2027" d="M20.7,29.7h-8.7v-25c0-0.6,0.5-1,1.1-1h6.5c0.6,0,1.1,0.5,1.1,1V29.7z"/>
    </symbol>
    <symbol id="cooking" viewBox="0 0 32 32">
        <path fill="none" stroke="#000000" stroke-width="3" stroke-miterlimit="10" d="M26.1,13.1l-0.8-0.7c-0.4-0.4-0.6-1-0.3-1.5l1-2.2
    c0.4-0.8-0.2-1.8-1-1.8h-1.5l-1.6-2.7c-0.3-0.6-1-0.7-1.5-0.3l-1.6,1.2c-0.4,0.3-1,0.3-1.4-0.2l-0.8-0.9c-0.4-0.5-1.1-0.5-1.5,0
    L14.4,5C14,5.4,13.4,5.4,13,5.1l-1.6-1.2c-0.5-0.4-1.2-0.2-1.5,0.3L8.3,6.9H6.8c-0.8,0-1.3,1-1,1.8l1,2.2c0.2,0.5,0.1,1.2-0.3,1.5
    l-0.8,0.7c-1.8,1.5-2.8,3.9-2.8,6.5c0,2.2,0.7,4.2,2.1,5.7l0.2,0.2c1.3,1.5,3.1,2.4,5,2.4h11.4c1.9,0,3.7-0.9,5-2.4l0.2-0.2
    c1.3-1.5,2.1-3.6,2.1-5.7C28.9,17.1,27.8,14.7,26.1,13.1z"/>
        <path fill="#3C1649" d="M26.7,25.5l0.2-0.2c1.3-1.5,2.1-3.6,2.1-5.7v0c0-2.6-1.1-5-2.8-6.5l-0.8-0.7c-0.4-0.4-0.6-1-0.3-1.5l1-2.2
    c0.4-0.8-0.2-1.8-1-1.8H6.8c-0.8,0-1.3,1-1,1.8l1,2.2c0.2,0.5,0.1,1.2-0.3,1.5l-0.8,0.7c-1.8,1.5-2.8,3.9-2.8,6.5v0
    c0,2.2,0.7,4.2,2.1,5.7l0.2,0.2c1.3,1.5,3.1,2.4,5,2.4h11.4C23.5,27.9,25.3,27.1,26.7,25.5z"/>
        <path fill="#BE2026" d="M8.3,6.9l1.6-2.7c0.3-0.6,1-0.7,1.5-0.3L13,5.1c0.4,0.3,1,0.3,1.4-0.2l0.8-0.9c0.4-0.5,1.1-0.5,1.5,0L17.4,5
    c0.4,0.4,0.9,0.5,1.4,0.2l1.6-1.2c0.5-0.4,1.2-0.2,1.5,0.3l1.6,2.7H8.3z"/>
    </symbol>
    <symbol id="woodcutting" viewBox="0 0 32 32">
        <path fill="none" stroke="#000000" stroke-width="3" stroke-miterlimit="10" d="M29.4,11.4c-0.1-1-0.5-1.8-1-2.8
      c-0.4-0.8-1-1.9-2-2.8c-1.1-1-2.2-1.3-4-1.9c-1.1-0.3-3.2-0.9-6-0.9c-1.2,0-3.4,0.1-6,0.9C9,4.4,7.8,4.8,6.4,5.8
      c-0.8,0.6-2.3,1.7-3,3.7c-0.8,2.2-0.2,4.1,0,4.6c0.2,0.6,0.4,1.2,1,1.9c1.2,1.3,2.8,1.6,4,1.9c0.8,0.2,2.2,0.3,4,0v7
      c0,0.2-0.1,0.5-0.3,0.7l-2,1.9C9.5,28,9.9,29,10.8,29H22c0.9,0,1.3-1,0.7-1.6l-2-1.9c-0.2-0.2-0.3-0.4-0.3-0.7v-7
      c0.7,0.2,2.2,0.5,4,0c0.6-0.2,2.7-0.8,4-2.8C28.7,14.6,29.6,13.2,29.4,11.4z"/>
        <path fill="#196333" d="M29.4,11.4c-0.1-1-0.5-1.8-1-2.8c-0.4-0.8-1-1.9-2-2.8c-1.1-1-2.2-1.3-4-1.9c-1.1-0.3-3.2-0.9-6-0.9
      c-1.2,0-3.4,0.1-6,0.9C9,4.4,7.8,4.8,6.4,5.8c-0.8,0.6-2.3,1.7-3,3.7c-0.8,2.2-0.2,4.1,0,4.6c0.2,0.6,0.4,1.2,1,1.9
      c1.2,1.3,2.8,1.6,4,1.9c0.8,0.2,2.2,0.3,4,0l4-0.9l4,0.9c0.7,0.2,2.2,0.5,4,0c0.6-0.2,2.7-0.8,4-2.8
      C28.7,14.6,29.6,13.2,29.4,11.4z"/>
        <path fill="#7D6235" d="M22.7,27.4l-2-1.9c-0.2-0.2-0.3-0.4-0.3-0.7v-9.8c0-0.5-0.4-0.9-1-0.9h-6c-0.6,0-1,0.4-1,0.9v9.8
      c0,0.2-0.1,0.5-0.3,0.7l-2,1.9C9.5,28,9.9,29,10.8,29H22C22.9,29,23.3,28,22.7,27.4z"/>
    </symbol>
    <symbol id="fletching" viewBox="0 0 32 32">
        <path fill="none" stroke="#000000" stroke-width="3" stroke-miterlimit="10" d="M7.9,17.7L22.3,8l0.2-1c0.1-0.5-0.3-1.1-0.9-1.2
    l-1-0.2L6.2,15.4L7.9,17.7z"/>
        <path fill="none" stroke="#000000" stroke-width="3" stroke-miterlimit="10" d="M24.2,14.5l-9.6,6.4L11.2,20
      c-0.3-0.1-0.6,0-0.9,0.1l-2.6,1.7c-0.7,0.5-0.5,1.6,0.3,1.8l1.7,0.4l-0.2,1c-0.1,0.5,0.3,1.1,0.9,1.2l1,0.2l-0.1,1.7
      c-0.1,0.8,0.9,1.4,1.6,0.9l2.6-1.7c0.3-0.2,0.4-0.4,0.4-0.7l0.3-3.4l9.6-6.4L24.2,14.5z"/>
        <path fill="none" stroke="#000000" stroke-width="3" stroke-miterlimit="10" d="M19.1,3.1l-2.6,1.7c-0.3,0.2-0.4,0.4-0.4,0.7
      l-0.3,3.4l4.8-3.2L20.7,4C20.8,3.2,19.8,2.6,19.1,3.1z"/>
        <path fill="none" stroke="#000000" stroke-width="3" stroke-miterlimit="10" d="M7.8,17.5l-1.5-2c-0.4-0.6-1.4-0.6-1.8,0.1L3.3,18
      c-0.4,0.7,0.2,1.6,1.1,1.5l2.8-0.4C7.9,19,8.2,18.2,7.8,17.5z"/>
        <path fill="none" stroke="#000000" stroke-width="3" stroke-miterlimit="10" d="M20.9,12.2c0.3,0.1,0.6,0,0.9-0.1l2.6-1.7
      c0.7-0.5,0.5-1.6-0.3-1.8L22.3,8l-4.8,3.2L20.9,12.2z"/>
        <path fill="none" stroke="#000000" stroke-width="3" stroke-miterlimit="10" d="M27.8,12.7L25,13.1c-0.8,0.1-1.1,0.9-0.7,1.6l1.5,2
      c0.4,0.6,1.4,0.6,1.8-0.1l1.3-2.4C29.2,13.4,28.6,12.6,27.8,12.7z"/>>
        <path fill="#095151" d="M22.5,7.1c0.1-0.5-0.3-1.1-0.9-1.2l-1-0.2L6.2,15.4l1.7,2.3L22.3,8L22.5,7.1z"/>
        <path fill="#095151" d="M24.2,14.5L9.8,24.1l-0.2,1c-0.1,0.5,0.3,1.1,0.9,1.2l1,0.2l14.4-9.7L24.2,14.5z"/>
        <path fill="#E1D11F" d="M20.6,5.7L20.7,4c0.1-0.8-0.9-1.4-1.6-0.9l-2.6,1.7c-0.3,0.2-0.4,0.4-0.4,0.7l-0.3,3.4L20.6,5.7z"/>
        <path fill="#E1D11F" d="M6.3,15.6c-0.4-0.6-1.4-0.6-1.8,0.1L3.3,18c-0.4,0.7,0.2,1.6,1.1,1.5l2.8-0.4c0.8-0.1,1.1-0.9,0.7-1.6
      L6.3,15.6z"/>
        <path fill="#E1D11F" d="M24,8.5L22.3,8l-4.8,3.2l3.4,0.9c0.3,0.1,0.6,0,0.9-0.1l2.6-1.7C25.1,9.8,24.9,8.7,24,8.5z"/>
        <path fill="#E1D11F" d="M11.2,20c-0.3-0.1-0.6,0-0.9,0.1l-2.6,1.7c-0.7,0.5-0.5,1.6,0.3,1.8l1.7,0.4l4.8-3.2L11.2,20z"/>
        <path fill="#E1D11F" d="M27.8,12.7L25,13.1c-0.8,0.1-1.1,0.9-0.7,1.6l1.5,2c0.4,0.6,1.4,0.6,1.8-0.1l1.3-2.4
      C29.2,13.4,28.6,12.6,27.8,12.7z"/>
        <path fill="#E1D11F" d="M11.5,26.5l-0.1,1.7c-0.1,0.8,0.9,1.4,1.6,0.9l2.6-1.7c0.3-0.2,0.4-0.4,0.4-0.7l0.3-3.4L11.5,26.5z"/>
    </symbol>
    <symbol id="fishing" viewBox="0 0 32 32">
        <path fill="none" stroke="#000000" stroke-width="3" stroke-miterlimit="10" d="M26,17.4h-0.7c-1.8,0-3.7,0.4-5.3,1.3l-1,0.5
      c-0.3,0.1-0.6,0.1-0.9-0.1l-2.4-1.6c-0.1-0.1-0.3-0.1-0.5-0.1h-1.6c-0.8,0-1.2,0.9-0.6,1.5s0.2,1.5-0.6,1.5H9
      c-0.3,0-0.6-0.1-0.8-0.4l-2.7-4.6l2.4,0.8c0.4,0.1,0.7,0,1-0.2c0.3-0.3,0.4-0.9,0.1-1.2l-1.4-2.2c-0.1-0.1-0.1-0.2-0.2-0.4L6.7,7.7
      C6.6,7,5.9,6.7,5.3,7L5,7.1C4.7,7.3,4.5,7.6,4.5,8v3.4L4.1,12c-1,1.5-1.6,3.3-1.6,5.1c0,1.4,0.3,2.9,1,4.1C4.8,23.9,7,26,9.7,27
      l1.4,0.6c2.9,1.1,6,1.4,9,0.7c2.9-0.6,5.5-2.1,7.5-4.1l0.8-0.8c0.7-0.7,1-1.6,1-2.5C29.5,18.9,27.9,17.4,26,17.4z"/>
        <path fill="none" stroke="#000000" stroke-width="3" stroke-miterlimit="10" d="M20.3,7.2c0.7,0.7,1.7,1,2.7,0.6l0.4-0.1
      c0.7-0.2,1.4-0.2,2,0.1c0.6,0.3,1,1,1,1.7c0,1-0.8,1.9-1.9,1.9h-0.1c-0.6,0-1,0.4-1,1s0.4,1,1,1h0.3c2,0,3.7-1.7,3.7-3.7
      c0-1.4-0.8-2.7-2-3.3l-1.1-0.6c-0.5-0.3-1.1-0.3-1.6,0C23,6.1,22.1,6,21.6,5.4L19,2.9c-0.3-0.3-0.8-0.4-1.2-0.2l-0.1,0.1
      C17.1,3,17,3.9,17.5,4.3L20.3,7.2z"/>
        <path fill="#23AECE" d="M6.4,15.7c-0.5-0.2-0.7,0.1-0.4,0.5L8.2,20c0.2,0.2,0.5,0.4,0.8,0.4h3.4c0.8,0,1.2-0.9,0.6-1.5l0,0
      c-0.6-0.6-0.2-1.5,0.6-1.5h1.6c0.2,0,0.3,0.1,0.5,0.1l2.4,1.6c0.3,0.2,0.6,0.2,0.9,0.1l1-0.5c1.7-0.8,3.5-1.3,5.3-1.3H26
      c2,0,3.5,1.6,3.5,3.5v0c0,0.9-0.4,1.8-1,2.5l-0.8,0.8c-2.1,2.1-4.7,3.5-7.5,4.1l0,0c-3,0.7-6.2,0.4-9-0.7L9.7,27
      C7,26,4.8,23.9,3.5,21.3l0,0c-0.6-1.3-1-2.7-1-4.1v0c0-1.8,0.5-3.6,1.6-5.1c0.2-0.4,0.4-1.1,0.4-1.7V8c0-0.4,0.2-0.7,0.5-0.9L5.3,7
      C5.9,6.7,6.6,7,6.7,7.7l0.7,4.5c0,0.1,0.1,0.3,0.2,0.4l1.4,2.2c0.3,0.4,0.2,0.9-0.1,1.2l0,0c-0.3,0.3-0.7,0.4-1,0.2L6.4,15.7z"/>
        <path fill="#ECE721" d="M23.5,12.4L23.5,12.4c0,0.6,0.4,1,1,1h0.3c2,0,3.7-1.7,3.7-3.7v0c0-1.4-0.8-2.7-2-3.3l-1.1-0.6
      c-0.5-0.3-1.1-0.3-1.6,0v0C23,6.1,22.1,6,21.6,5.4L19,2.9c-0.3-0.3-0.8-0.4-1.2-0.2l-0.1,0.1C17.1,3,17,3.9,17.5,4.3l2.9,2.9
      c0.7,0.7,1.7,1,2.7,0.6l0.4-0.1c0.7-0.2,1.4-0.2,2,0.1v0c0.6,0.3,1,1,1,1.7v0c0,1-0.8,1.9-1.9,1.9h-0.1
      C23.9,11.4,23.5,11.8,23.5,12.4z"/>
    </symbol>
    <symbol id="firemaking" viewBox="0 0 32 32">
        <path fill="none" stroke="#231F20" stroke-width="3" stroke-miterlimit="10" d="M11.4,17l2.7,1.2c1.1,0.5,2.3,0.5,3.4,0l2.7-1.2
    c1.6-0.7,2.6-2.2,2.6-4v-0.5c0-1.6-0.9-3.1-2.4-3.9l-0.3-0.2c-0.8-0.4-1.5-1.1-1.9-1.9l-1.5-2.9c-0.4-0.7-1.4-0.7-1.8,0l-1.7,3.3
    c-0.3,0.6-0.7,1.1-1.3,1.5l-1.5,1.1c-1.1,0.8-1.7,2.1-1.7,3.5C8.8,14.7,9.8,16.3,11.4,17z"/>
        <path fill="none" stroke="#231F20" stroke-width="3" stroke-miterlimit="10" d="M26.4,24.3l-3.6-1.4l3.6-1.4
    c0.7-0.3,0.8-1.1,0.3-1.6l-2.5-2.5C24,17,23.5,17,23.2,17.1l-7.4,3l-7.4-3C8,17,7.6,17,7.3,17.3l-2.5,2.5
    c-0.5,0.5-0.3,1.4,0.3,1.6l3.6,1.4l-3.6,1.4c-0.7,0.3-0.8,1.1-0.3,1.6l2.5,2.5c0.3,0.3,0.7,0.4,1.1,0.2l7.4-3l7.4,3
    c0.4,0.1,0.8,0.1,1.1-0.2l2.5-2.5C27.2,25.4,27,24.6,26.4,24.3z"/>
        <path fill="#E2C207" d="M14.9,3.6l-1.7,3.3c-0.3,0.6-0.7,1.1-1.3,1.5l-1.5,1.1c-1.1,0.8-1.7,2.1-1.7,3.5v0c0,1.7,1,3.3,2.6,4
    l2.7,1.2c1.1,0.5,2.3,0.5,3.4,0l2.7-1.2c1.6-0.7,2.6-2.2,2.6-4v-0.5c0-1.6-0.9-3.1-2.4-3.9l-0.3-0.2c-0.8-0.4-1.5-1.1-1.9-1.9
    l-1.5-2.9C16.3,2.9,15.3,2.9,14.9,3.6z"/>
        <path fill="#D66600" d="M26.4,24.3l-3.6-1.4l3.6-1.4c0.7-0.3,0.8-1.1,0.3-1.6l-2.5-2.5C24,17,23.5,17,23.2,17.1l-7.4,3l-7.4-3
    C8,17,7.6,17,7.3,17.3l-2.5,2.5c-0.5,0.5-0.3,1.4,0.3,1.6l3.6,1.4l-3.6,1.4c-0.7,0.3-0.8,1.1-0.3,1.6l2.5,2.5
    c0.3,0.3,0.7,0.4,1.1,0.2l7.4-3l7.4,3c0.4,0.1,0.8,0.1,1.1-0.2l2.5-2.5C27.2,25.4,27,24.6,26.4,24.3z"/>
    </symbol>
    <symbol id="crafting" viewBox="0 0 32 32">
        <path fill="none" stroke="#140F0B" stroke-width="3" stroke-miterlimit="10" d="M28.9,12.2l-0.8-3.2c0-0.2-0.1-0.3-0.3-0.5L23.3,4
    c-0.1-0.1-0.3-0.2-0.5-0.3l-3.2-0.8c-0.3-0.1-0.7,0-0.9,0.3l-2.1,2.1c-0.3,0.3-0.4,0.8-0.2,1.2l1.4,2.7c0.2,0.4,0.1,0.8-0.2,1.2
    l-3.5,3.5L6.8,6.5c-0.4-0.4-1-0.4-1.4,0L2.8,9.1c-0.4,0.4-0.4,1,0,1.4l7.3,7.3l-7.3,7.3c-0.4,0.4-0.4,1,0,1.4l2.6,2.6
    c0.4,0.4,1,0.4,1.4,0l7.3-7.3c0.1,0,0.1,0.1,0.2,0.1l2.1,0.7c0.4,0.1,0.7,0.5,0.7,0.9v0.9c0,0.3,0.1,0.5,0.3,0.7l4,4
    c0.4,0.4,1,0.4,1.4,0l2.6-2.6c0.4-0.4,0.4-1,0-1.4l-4-4c-0.2-0.2-0.4-0.3-0.7-0.3h-0.9c-0.4,0-0.8-0.3-0.9-0.7L18.1,18
    c0-0.1-0.1-0.1-0.1-0.2l3.5-3.5c0.3-0.3,0.8-0.4,1.2-0.2l2.7,1.4c0.4,0.2,0.8,0.1,1.2-0.2l2.1-2.1C28.9,12.9,29,12.6,28.9,12.2z"/>
        <path fill="#724726" d="M28.9,12.2l-0.8-3.2c0-0.2-0.1-0.3-0.3-0.5L23.3,4c-0.1-0.1-0.3-0.2-0.5-0.3l-3.2-0.8
    c-0.3-0.1-0.7,0-0.9,0.3l-2.1,2.1c-0.3,0.3-0.4,0.8-0.2,1.2l1.4,2.7c0.2,0.4,0.1,0.8-0.2,1.2L2.8,25.1c-0.4,0.4-0.4,1,0,1.4
    l2.6,2.6c0.4,0.4,1,0.4,1.4,0l14.8-14.8c0.3-0.3,0.8-0.4,1.2-0.2l2.7,1.4c0.4,0.2,0.8,0.1,1.2-0.2l2.1-2.1
    C28.9,12.9,29,12.6,28.9,12.2z"/>
        <path fill="#F1E014" d="M16.4,22.6l-2.1-0.7c-0.1,0-0.3-0.1-0.4-0.2L2.8,10.5c-0.4-0.4-0.4-1,0-1.4l2.6-2.6c0.4-0.4,1-0.4,1.4,0
    l11.1,11.1c0.1,0.1,0.2,0.2,0.2,0.4l0.7,2.1c0.1,0.4,0.5,0.7,0.9,0.7h0.9c0.3,0,0.5,0.1,0.7,0.3l4,4c0.4,0.4,0.4,1,0,1.4l-2.6,2.6
    c-0.4,0.4-1,0.4-1.4,0l-4-4c-0.2-0.2-0.3-0.4-0.3-0.7v-0.9C17.1,23.1,16.8,22.7,16.4,22.6z"/>
    </symbol>
    <symbol id="smithing" viewBox="0 0 32 32">
        <path fill="none" stroke="#231F20" stroke-width="3" stroke-miterlimit="10" d="M23.2,15.2H28c0.6,0,1-0.4,1-1v-1.5
    c0-0.3-0.1-0.6-0.3-0.8l-7.4-6.5c-0.2-0.2-0.4-0.2-0.7-0.2h-8.2c-0.3,0-0.5,0.1-0.7,0.3l-0.8,0.8c-0.4,0.4-1.2,0.4-1.5-0.2l-1-1.5
    C8.1,4.4,7.8,4.2,7.5,4.2H4c-0.6,0-1,0.4-1,1v10c0,0.6,0.4,1,1,1h3.5c0.3,0,0.6-0.2,0.8-0.4l0.9-1.3c0.4-0.6,1.3-0.6,1.7,0l1.2,1.8
    l-2,4.7c-0.1,0.2-0.2,0.3-0.4,0.5L4.4,25C4.2,25.1,4,25.4,4,25.8v2.5c0,0.6,0.4,1,1,1h23c0.6,0,1-0.4,1-1v-2.5
    c0-0.3-0.2-0.6-0.4-0.8l-5.3-3.5c-0.2-0.1-0.3-0.3-0.4-0.5L21,16.2l1.8-0.9C22.9,15.3,23.1,15.2,23.2,15.2z"/>
        <path fill="#FFC200" d="M5,29.2h23c0.6,0,1-0.4,1-1v-2.5c0-0.3-0.2-0.6-0.4-0.8l-5.3-3.5c-0.2-0.1-0.3-0.3-0.4-0.5L21,16.2h-9
    L10.1,21c-0.1,0.2-0.2,0.3-0.4,0.5L4.4,25C4.2,25.1,4,25.4,4,25.8v2.5C4,28.8,4.4,29.2,5,29.2z"/>
        <path fill="#37382D" d="M21,16.2l1.8-0.9c0.1-0.1,0.3-0.1,0.4-0.1H28c0.6,0,1-0.4,1-1v-1.5c0-0.3-0.1-0.6-0.3-0.8l-7.4-6.5
    c-0.2-0.2-0.4-0.2-0.7-0.2h-8.2c-0.3,0-0.5,0.1-0.7,0.3l-0.8,0.8c-0.4,0.4-1.2,0.4-1.5-0.2l-1-1.5C8.1,4.4,7.8,4.2,7.5,4.2H4
    c-0.6,0-1,0.4-1,1v10c0,0.6,0.4,1,1,1h3.5c0.3,0,0.6-0.2,0.8-0.4l0.9-1.3c0.4-0.6,1.3-0.6,1.7,0l1.2,1.8H21V16.2z"/>
    </symbol>
    <symbol id="mining" viewBox="0 0 32 32">
        <path fill="none" stroke="#140F0B" stroke-width="3" stroke-miterlimit="10" d="M28.2,12.4L28,11.6c-0.5-1.6-1.5-3.1-2.7-4.3L25,7
    c-1.2-1.2-2.7-2.1-4.3-2.7L19.9,4c-1.8-0.6-3.8-0.7-5.6-0.4c-1.4,0.3-2.7,0.8-3.9,1.6l-1.2,1h1.6c0.9,0,1.8,0.1,2.7,0.3l0.8,0.2
    c1.2,0.3,2.4,0.8,3.4,1.5l0.5,0.3c0.3,0.2,0.6,0.4,0.9,0.6L3.9,24.5c-0.4,0.4-0.4,1,0,1.4l2.6,2.6c0.4,0.4,1,0.4,1.4,0l15.3-15.3
    c0.2,0.3,0.4,0.6,0.6,0.9l0.3,0.5c0.7,1,1.2,2.2,1.5,3.4l0.2,0.8c0.2,0.9,0.3,1.8,0.3,2.7v1.6L27,22c0.8-1.2,1.4-2.5,1.6-3.9
    C29,16.2,28.8,14.2,28.2,12.4z"/>
        <path fill="#575644" d="M23.5,12.9L7.9,28.5c-0.4,0.4-1,0.4-1.4,0l-2.6-2.6c-0.4-0.4-0.4-1,0-1.4L19.5,8.9c0.4-0.4,1-0.4,1.4,0
    l2.6,2.6C23.8,11.9,23.8,12.5,23.5,12.9z"/>
        <path fill="#32AACE" d="M18.3,8.6l-0.5-0.3c-1-0.7-2.2-1.2-3.4-1.5l-0.8-0.2c-0.9-0.2-1.8-0.3-2.7-0.3H9.2l1.2-0.8
    c1.2-0.8,2.5-1.4,3.9-1.6l0,0c1.9-0.4,3.8-0.3,5.6,0.4l0.8,0.3C22.3,4.9,23.8,5.8,25,7l0.3,0.3c1.2,1.2,2.1,2.7,2.7,4.3l0.3,0.8
    c0.6,1.8,0.7,3.8,0.4,5.6l0,0c-0.3,1.4-0.8,2.7-1.6,3.9l-0.8,1.2v-1.6c0-0.9-0.1-1.8-0.3-2.7L25.6,18c-0.3-1.2-0.8-2.4-1.5-3.4
    l-0.3-0.5c-0.4-0.6-0.9-1.2-1.4-1.7l-2.5-2.5C19.4,9.4,18.9,9,18.3,8.6z"/>
    </symbol>
    <symbol id="herblore" viewBox="0 0 32 32">
        <path fill="none" stroke="#231F20" stroke-width="3" stroke-miterlimit="10" d="M27.6,15.7l-3.7,2.7c-0.1,0-0.1,0.1-0.1,0.1
    c0.9-1.6,1.6-3.5,2-5.4l0.2-0.9c0.2-0.9-0.7-1.6-1.5-1.2l-3.6,1.4l-3.3-7.6c-0.4-0.9-1.6-0.9-2,0l-3.3,7.6L8.6,11
    c-0.8-0.3-1.6,0.4-1.5,1.2l0.2,0.9c0.4,1.9,1.1,3.7,2,5.4c-0.1-0.1-0.2-0.1-0.3-0.2l-3.6-2.5c-0.9-0.6-2,0.3-1.6,1.3l1.1,2.6
    c1.2,3,3.6,5.5,6.5,6.8l0,0c3.2,1.5,7,1.5,10.2,0v0c3-1.3,5.3-3.8,6.6-6.9l1.1-2.7C29.6,16,28.4,15.1,27.6,15.7z"/>
        <path fill="#1CA809" d="M15.9,25.3L15.9,25.3c-4.5-2.6-7.6-7-8.6-12.1l-0.2-0.9c-0.2-0.9,0.7-1.6,1.5-1.2l3.6,1.4l3.3-7.6
    c0.4-0.9,1.6-0.9,2,0l3.3,7.6l3.6-1.4c0.8-0.3,1.6,0.4,1.5,1.2l-0.2,0.9c-1,5.1-4.2,9.5-8.6,12.1l0,0C16.7,25.5,16.3,25.5,15.9,25.3
    z"/>
        <path fill="#FFF200" d="M3.8,17.2l1.1,2.6c1.2,3,3.6,5.5,6.5,6.8l0,0c3.2,1.5,7,1.5,10.2,0l0,0c3-1.3,5.3-3.8,6.6-6.9l1.1-2.7
    c0.4-1-0.8-1.9-1.6-1.3l-3.7,2.7c-0.6,0.4-1.1,0.9-1.6,1.3l-5,5c-0.4,0.4-1.1,0.4-1.5,0l-4.9-5c-0.5-0.5-1.1-1-1.8-1.5l-3.6-2.5
    C4.5,15.2,3.4,16.2,3.8,17.2z"/>
    </symbol>
    <symbol id="agility" viewBox="0 0 32 32">
        <path fill="none" stroke="#231F20" stroke-width="3" stroke-miterlimit="10" d="M23.2,10.8c-1.5,1.1-3.5,0.6-4.3-1l-0.2-0.4
    c-0.2-0.3-0.5-0.5-0.9-0.5h-1.4c0.7-1.3,1-2.8,1-4.2V4.3c0-0.2-0.1-0.5-0.2-0.7l-0.4-0.9c-0.3-0.5-0.8-0.8-1.3-0.8
    c-0.6,0-1.2,0.4-1.4,1c-0.4,1.3-0.5,2.7-0.2,4l0.5,2h-2.5c-0.3,0-0.6,0.1-0.8,0.4L10,10.8c-1,1.4-1.4,3.1-1.1,4.7l0.3,1.6
    c0.1,0.4,0.5,0.8,0.9,0.8c0.6,0,1.1-0.6,0.9-1.2l0-0.1c-0.4-1.7,0.1-3.5,1.3-4.7l1,4.8c0,0.1,0,0.2,0,0.3c-0.6,3.8-2.4,7.3-5.1,10
    L8,27.3c-0.7,0.7-0.4,2,0.6,2.3c0.5,0.2,1.1,0,1.4-0.3l2.1-2.1c1.5-1.5,2.7-3.2,3.7-5.1l0.4-0.8c0.1-0.2,0.3-0.4,0.6-0.5l2.2-0.7
    c0.3-0.1,0.5,0,0.7,0.2l1.2,1.2c0.3,0.3,0.3,0.7,0,1l-2.8,2.8c-0.4,0.4-0.4,1,0,1.3c0.7,0.7,1.9,0.6,2.5-0.1l2.5-3.1
    c0.2-0.3,0.4-0.7,0.4-1v-1.5c0-0.6-0.3-1.1-0.7-1.4v0c-1.5-1-3.2-1.5-5-1.5h-0.3v-4l1-2l0.3,0.4c0.9,1.4,2.8,1.7,4.2,0.7
    c1-0.7,1.5-1.9,1.5-3.1V9.9L23.2,10.8z"/>
        <path fill="#A11D21" d="M17.4,4.7V4.3c0-0.2-0.1-0.5-0.2-0.7l-0.4-0.9c-0.3-0.5-0.8-0.8-1.3-0.8c-0.6,0-1.2,0.4-1.4,1
    c-0.4,1.3-0.5,2.7-0.2,4l0.5,2c0.5,0,1.3,0,2,0C17,7.6,17.4,6.2,17.4,4.7z"/>
        <path fill="#184DD1" d="M23.2,10.8c-1.5,1.1-3.5,0.6-4.3-1l-0.2-0.4c-0.2-0.3-0.5-0.5-0.9-0.5h-1.4c-0.8,0-1.5,0-2,0h-2.5
    c-0.3,0-0.6,0.1-0.8,0.4L10,10.8c-1,1.4-1.4,3.1-1.1,4.7l0.3,1.6c0.1,0.4,0.5,0.8,0.9,0.8c0.6,0,1.1-0.6,0.9-1.2l0-0.1
    c-0.4-1.7,0.1-3.5,1.3-4.7l1,4.8c0,0.1,0,0.2,0,0.3c-0.6,3.8-2.4,7.3-5.1,10L8,27.3c-0.7,0.7-0.4,2,0.6,2.3c0.5,0.2,1.1,0,1.4-0.3
    l2.1-2.1c1.5-1.5,2.7-3.2,3.7-5.1l0.4-0.8c0.1-0.2,0.3-0.4,0.6-0.5l2.2-0.7c0.3-0.1,0.5,0,0.7,0.2l1.2,1.2c0.3,0.3,0.3,0.7,0,1
    l-2.8,2.8c-0.4,0.4-0.4,1,0,1.3c0.7,0.7,1.9,0.6,2.5-0.1l2.5-3.1c0.2-0.3,0.4-0.7,0.4-1v-1.5c0-0.6-0.3-1.1-0.7-1.4v0
    c-1.5-1-3.2-1.5-5-1.5h-0.3v-4l1-2l0.3,0.4c0.9,1.4,2.8,1.7,4.2,0.7c1-0.7,1.5-1.9,1.5-3.1V9.9L23.2,10.8z"/>
    </symbol>
    <symbol id="thieving" viewBox="0 0 32 32">
        <path fill="#6B375A" d="M15.7,24.7c-0.3,0-0.5-0.1-0.8-0.2l-3.3-1.7c0,0-0.1,0-0.1,0H9.8c-2.8,0-5.5-1.4-7.1-3.8
    c-1.2-1.8-1.3-4.1-0.4-6c0.5-0.9,1.2-1.7,2.1-2.3c3.3-2.2,7.1-3.3,11.1-3.3h0.4c3.9,0,7.8,1.2,11.1,3.3c0.9,0.6,1.6,1.4,2.1,2.3
    c1,1.9,0.8,4.3-0.4,6c-1.6,2.4-4.2,3.8-7.1,3.8h-1.6c0,0-0.1,0-0.1,0l-3.3,1.7C16.2,24.6,16,24.7,15.7,24.7z"/>
        <path d="M15.9,8c3.8,0,7.5,1.1,10.6,3.2h0c0.8,0.5,1.4,1.2,1.8,2v0C29.2,15,29,17,28,18.6l0,0c-1.4,2.2-3.9,3.4-6.4,3.4h-1.6
    c-0.2,0-0.3,0-0.4,0.1l-3.3,1.7c-0.1,0.1-0.3,0.1-0.4,0.1s-0.3,0-0.4-0.1l-3.3-1.7c-0.1-0.1-0.3-0.1-0.4-0.1H9.8
    c-2.6,0-5-1.3-6.4-3.4h0C2.3,17,2.2,15,3.1,13.3v0c0.4-0.8,1-1.5,1.8-2h0C8,9.1,11.7,8,15.5,8H15.9 M15.9,6.5h-0.4
    C11.4,6.5,7.4,7.7,4,10c-1,0.7-1.8,1.6-2.3,2.6c-1.1,2.2-0.9,4.8,0.4,6.8c1.7,2.6,4.6,4.1,7.7,4.1h1.5l3.2,1.6
    c0.3,0.2,0.7,0.3,1.1,0.3c0.4,0,0.8-0.1,1.1-0.3l3.2-1.6h1.5c3.1,0,6-1.5,7.7-4.1c1.3-2,1.5-4.6,0.4-6.8c-0.5-1.1-1.3-2-2.3-2.6
    C23.9,7.7,20,6.5,15.9,6.5L15.9,6.5z"/>
        <path fill="#131212" d="M13.5,15.8c-1.1-1.1-2.7-1.8-4.3-1.8H8c-0.8,0-1.6,0.3-2.2,0.9c-0.6,0.6-0.6,1.6,0,2.2l0.5,0.5
    c0.2,0.2,0.5,0.4,0.9,0.4l5.4,0.8c0.7,0.1,1.3-0.2,1.6-0.8s0.2-1.3-0.3-1.8L13.5,15.8z"/>
        <path fill="#131212" d="M25.6,14.9C25,14.3,24.2,14,23.4,14h-1.2c-1.6,0-3.1,0.6-4.3,1.8l-0.4,0.4c-0.5,0.5-0.6,1.2-0.3,1.8
    s0.9,0.9,1.6,0.8l5.4-0.8c0.3,0,0.6-0.2,0.9-0.4l0.5-0.5C26.2,16.5,26.2,15.5,25.6,14.9z"/>
    </symbol>
    <symbol id="slayer" viewBox="0 0 32 32">
        <path fill="none" stroke="#000000" stroke-width="3" stroke-miterlimit="10" d="M28.4,21.6l-2.2-1.5c-0.3-0.2-0.5-0.6-0.5-1v-1.2
    c0-0.3-0.1-0.6-0.3-0.8l-2.7-2.8c-0.8-0.9-1.9-1.5-3-1.9l0.3-0.5l3,1.3c0.7,0.3,1.6-0.3,1.6-1.1v-1c0-0.5-0.3-0.9-0.7-1.1l-2.2-0.9
    l2.1-3.5c0.4-0.6,0.1-1.5-0.6-1.8l-1.2-0.4c-0.5-0.2-1,0-1.3,0.4l-2.6,3.8L16.1,7c-0.4-0.2-0.9-0.1-1.2,0.3l-0.5,0.6
    c-0.6,0.6-0.4,1.6,0.4,1.9l1.5,0.6l-0.7,1.1c-0.1,0-0.2,0-0.3,0l-3.6,0.6c-2,0.3-3.8,1.3-5.1,2.7L6,15.4c-0.5,0.5-1,1.2-1.3,1.8h0
    c-1.1,2.3-0.9,5,0.5,7.1l3,4.4c0.2,0.3,0.6,0.5,0.9,0.5h6.7c0.4,0,0.8-0.3,1-0.7l0.4-0.8c0.3-0.5,0.8-0.8,1.4-0.6l5.2,1.8
    c0.4,0.1,0.9,0,1.2-0.3l1-1c1.3-1.3,2.2-2.9,2.8-4.7l0,0C29,22.4,28.8,21.9,28.4,21.6z"/>
        <path fill="#282827" d="M11.7,12.1l3.6-0.6c0.1,0,0.3,0,0.4,0l3.3,0.7c1.4,0.3,2.7,1,3.7,2.1l2.7,2.8c0.2,0.2,0.3,0.5,0.3,0.8v1.2
    c0,0.4,0.2,0.8,0.5,1l2.2,1.5c0.4,0.3,0.6,0.9,0.4,1.4l0,0c-0.6,1.8-1.5,3.4-2.8,4.7l-1,1c-0.3,0.3-0.7,0.4-1.2,0.3l-5.2-1.8
    c-0.5-0.2-1.1,0.1-1.4,0.6l-0.4,0.8c-0.2,0.4-0.6,0.7-1,0.7H9.2c-0.4,0-0.7-0.2-0.9-0.5l-3-4.4c-1.4-2.1-1.6-4.8-0.5-7.1l0,0
    c0.3-0.7,0.8-1.3,1.3-1.8l0.5-0.5C7.9,13.4,9.7,12.4,11.7,12.1z"/>
        <path fill="#681F1F" d="M23.8,10l-2.2-0.9l2.1-3.5c0.4-0.6,0.1-1.5-0.6-1.8l-1.2-0.4c-0.5-0.2-1,0-1.3,0.4l-2.6,3.8L16.1,7
    c-0.4-0.2-0.9-0.1-1.2,0.3l-0.5,0.6c-0.6,0.6-0.4,1.6,0.4,1.9l1.5,0.6L13.9,14c-0.4,0.5-0.2,1.3,0.3,1.7l1.5,1
    c0.5,0.4,1.2,0.2,1.6-0.3l2.7-4.5l3,1.3c0.7,0.3,1.6-0.3,1.6-1.1v-1C24.5,10.6,24.2,10.1,23.8,10z"/>
    </symbol>
    <symbol id="farming" viewBox="0 0 32 32">
        <path fill="none" stroke="#000000" stroke-width="3" stroke-miterlimit="10" d="M28.6,14.3l-5-4.1c-0.2-0.1-0.3-0.3-0.3-0.5L23,7.9
    c-0.3-1.6-1.5-2.9-3-3.4l-0.2-0.1c-1.9-0.6-4-0.6-5.9,0c-1.6,0.5-2.8,1.9-3,3.6l-0.5,3.7c0,0,0,0.1,0,0.1v5.5l-2.6-3.5
    c-0.1-0.2-0.2-0.4-0.2-0.6v-1.8c0-0.4-0.3-0.8-0.6-0.9l-1.6-0.5c-0.3-0.1-0.7,0-0.9,0.2l-1.2,1.2C3.1,11.7,3,12,3,12.2V14
    c0,0.4,0.3,0.8,0.6,0.9l1.8,0.6c0.2,0.1,0.4,0.2,0.5,0.4l3.5,6.1c0,0.1,0.1,0.2,0.1,0.3l0.6,3c0.2,0.9,0.8,1.7,1.6,2.1l0.2,0.1
    c1.4,0.7,3,1.1,4.6,1.1h0.7c1.6,0,3.2-0.4,4.6-1.1l0.3-0.2c0.7-0.4,1.2-1.1,1.2-2c0-0.3,0.2-0.6,0.4-0.8l4.7-3.2
    c0.3-0.2,0.4-0.5,0.4-0.8v-5.6C29,14.8,28.8,14.5,28.6,14.3z M21.4,10c0-0.1-0.1-0.2-0.2-0.3l-0.6-0.1C17.9,9,15,9.1,12.3,10
    c0,0,0,0-0.1,0l0.3-1.1c0.4-1.6,1.7-2.9,3.3-3.3c0.7-0.2,1.5-0.2,2.2,0c1.6,0.4,2.9,1.7,3.3,3.3l0.3,1.1H21.4z M27.1,19.7
    c0,0.3-0.2,0.6-0.4,0.8l-0.9,0.6c-0.6,0.4-1.4,0-1.4-0.8v-4.9c0-0.7,0.8-1.2,1.4-0.8l0.9,0.6c0.3,0.2,0.4,0.5,0.4,0.8V19.7z"/>
        <path fill="#356C35" d="M11.7,27.3l0.2,0.1c1.4,0.7,3,1.1,4.6,1.1h0.7c1.6,0,3.2-0.4,4.6-1.1l0.3-0.2c0.7-0.4,1.2-1.1,1.2-2v0
    c0-0.3,0.2-0.6,0.4-0.8l4.7-3.2c0.3-0.2,0.4-0.5,0.4-0.8v-5.6c0-0.3-0.1-0.5-0.3-0.7l-5-4.1c-0.2-0.1-0.3-0.3-0.3-0.5L23,7.9
    c-0.3-1.6-1.5-2.9-3-3.4l-0.2-0.1c-1.9-0.6-4-0.6-5.9,0l0,0c-1.6,0.5-2.8,1.9-3,3.6l-0.5,3.7c0,0,0,0.1,0,0.1v5.5l-2.6-3.5
    c-0.1-0.2-0.2-0.4-0.2-0.6v-1.8c0-0.4-0.3-0.8-0.6-0.9l-1.6-0.5c-0.3-0.1-0.7,0-0.9,0.2l-1.2,1.2C3.1,11.7,3,12,3,12.2V14
    c0,0.4,0.3,0.8,0.6,0.9l1.8,0.6c0.2,0.1,0.4,0.2,0.5,0.4l3.5,6.1c0,0.1,0.1,0.2,0.1,0.3l0.6,3C10.3,26.1,10.9,26.9,11.7,27.3z
    M12.3,10l0.3-1.1c0.4-1.6,1.7-2.9,3.3-3.3l0,0c0.7-0.2,1.5-0.2,2.2,0l0,0c1.6,0.4,2.9,1.7,3.3,3.3l0.3,1.1H12.3z M26.7,20.5
    l-0.9,0.6c-0.6,0.4-1.4,0-1.4-0.8v-4.9c0-0.7,0.8-1.2,1.4-0.8l0.9,0.6c0.3,0.2,0.4,0.5,0.4,0.8v3.6C27.1,20,27,20.3,26.7,20.5z"/>
        <path fill="#49B654" d="M21.3,9.7c0.2,0.2,0.3,0.7,0.3,0.7c0,0.9-0.5,1.7-1.3,2.1l0,0c-0.3,0.2-0.7,0.3-1.1,0.3h-4.4
    c-0.4,0-0.7-0.1-1.1-0.3l0,0c-0.8-0.4-1.3-1.2-1.3-2.1V10l0,0c0,0,0,0,0.1,0C15,9.1,17.9,9,20.6,9.6L21.3,9.7z"/>
    </symbol>
    <symbol id="runecraft" viewBox="0 0 32 32">
        <path fill="none" stroke="#000000" stroke-width="3" stroke-miterlimit="10" d="M26.9,12.7L26.9,12.7c-0.9-1.7-2.6-3.2-4.7-4l-2-0.8
    c-0.2-0.1-0.4-0.1-0.6-0.1h0.3l-3-4C16.3,3,15,3,14.5,3.8l-3,4h0.3c-0.2,0-0.4,0-0.6,0.1l-2,0.8c-2.1,0.8-3.8,2.3-4.7,4v0
    c-0.9,1.8-0.9,3.9,0,5.7l0.4,0.7c0.7,1.3,1.8,2.4,3.2,3.3l3.1,1.8c0.2,0.1,0.5,0.2,0.8,0.2h-0.5l3,4c0.5,0.7,1.9,0.7,2.4,0l3-4h-0.5
    c0.3,0,0.6-0.1,0.8-0.2l3.1-1.8c1.4-0.8,2.5-2,3.2-3.3l0.4-0.7C27.8,16.6,27.8,14.5,26.9,12.7z"/>
        <path fill="#EFEFEF" d="M26.9,18.4l-0.4,0.7c-0.7,1.3-1.8,2.4-3.2,3.3l-3.1,1.8c-0.2,0.1-0.5,0.2-0.8,0.2h-7.5
    c-0.3,0-0.6-0.1-0.8-0.2L8,22.4c-1.4-0.8-2.5-2-3.2-3.3l-0.4-0.7c-0.9-1.8-0.9-3.9,0-5.7l0,0c0.9-1.7,2.6-3.2,4.7-4l2-0.8
    c0.2-0.1,0.4-0.1,0.6-0.1h7.8c0.2,0,0.4,0,0.6,0.1l2,0.8c2.1,0.8,3.8,2.3,4.7,4l0,0C27.8,14.5,27.8,16.6,26.9,18.4z"/>
        <path fill="#E6AF22" d="M16.9,3.8C16.3,3,15,3,14.5,3.8l-3,4h1.8c0.6,0,1.1,0.3,1.3,0.8l0.8,2c0.2,0.4,0.1,0.8-0.2,1l-4.4,4.3
    c-0.4,0.4-0.4,1.1,0.1,1.5l4.1,3.3c0.4,0.3,0.5,0.7,0.3,1.1l-0.8,1.9c-0.2,0.5-0.7,0.8-1.3,0.8h-1.8l3,4c0.5,0.7,1.9,0.7,2.4,0l3-4
    h-2.8l2.2-2.6c0.4-0.4,0.3-1-0.2-1.4l-3.8-3c-0.6-0.4-0.6-1.1,0-1.6l5.1-4c0.6-0.4,0.6-1.1,0-1.6l-3.2-2.6h2.8L16.9,3.8z"/>
    </symbol>
    <symbol id="hunter" viewBox="0 0 32 32">
        <path fill="none" stroke="#000000" stroke-width="3" stroke-miterlimit="10" d="M24.1,22.3L21.7,21c-0.2-0.1-0.4-0.3-0.5-0.6
    l-0.8-2.2c-0.7-2-2.5-3.3-4.5-3.3s-3.7,1.3-4.5,3.3l-0.8,2.2c-0.1,0.3-0.3,0.5-0.5,0.6l-2.4,1.3c-1,0.5-1.6,1.6-1.6,2.8
    c0,1,0.5,2,1.3,2.6l1.1,0.8c0.6,0.4,1.3,0.6,2,0.5c3.6-0.7,7.2-0.7,10.8,0c0.7,0.1,1.4,0,2-0.5l1.1-0.8c0.8-0.6,1.3-1.5,1.3-2.6
    C25.7,23.9,25,22.8,24.1,22.3z"/>
        <path fill="none" stroke="#000000" stroke-width="3" stroke-miterlimit="10" d="M12.1,12.5L12.1,12.5c1.5,0,2.7-1.3,2.7-2.9V6
    c0-1.6-1.2-2.9-2.7-2.9h0c-1,0-1.9,0.6-2.4,1.6v0c-0.9,2-0.9,4.3,0,6.2C10.2,11.9,11.1,12.5,12.1,12.5z"/>
        <path fill="none" stroke="#000000" stroke-width="3" stroke-miterlimit="10" d="M7.3,19.6c1.2,0,2.4-0.9,2.8-2.2
    c0.3-0.9,0.2-1.8-0.3-2.6l-1.2-2.1c-0.8-1.4-2.4-1.9-3.8-1.2l-0.3,0.2c-1,0.5-1.6,1.6-1.6,2.8v1.5c0,0.8,0.3,1.6,0.8,2.2l0.5,0.5
    c0.5,0.6,1.3,0.9,2.1,0.9H7.3z"/>
        <path fill="none" stroke="#000000" stroke-width="3" stroke-miterlimit="10" d="M19.7,12.5L19.7,12.5c1,0,1.9-0.6,2.4-1.6
    c0.9-2,0.9-4.3,0-6.2v0c-0.5-1-1.4-1.6-2.4-1.6h0C18.2,3,17,4.3,17,6v3.6C17,11.2,18.2,12.5,19.7,12.5z"/>
        <path fill="none" stroke="#000000" stroke-width="3" stroke-miterlimit="10" d="M27.3,11.6L27,11.4c-1.4-0.7-3-0.2-3.8,1.2L22,14.8
    c-0.4,0.8-0.5,1.8-0.3,2.6c0.4,1.3,1.5,2.2,2.8,2.2h1c0.8,0,1.5-0.3,2.1-0.9l0.5-0.5c0.5-0.6,0.8-1.4,0.8-2.2v-1.5
    C28.9,13.2,28.3,12.2,27.3,11.6z"/>
        <path fill="#897162" d="M7.7,22.3l2.4-1.3c0.2-0.1,0.4-0.3,0.5-0.6l0.8-2.2c0.7-2,2.5-3.3,4.5-3.3h0c2,0,3.7,1.3,4.5,3.3l0.8,2.2
    c0.1,0.3,0.3,0.5,0.5,0.6l2.4,1.3c1,0.5,1.6,1.6,1.6,2.8v0c0,1-0.5,2-1.3,2.6l-1.1,0.8c-0.6,0.4-1.3,0.6-2,0.5l0,0
    c-3.6-0.7-7.2-0.7-10.8,0l0,0c-0.7,0.1-1.4,0-2-0.5l-1.1-0.8C6.6,27,6.2,26.1,6.2,25v0C6.2,23.9,6.8,22.8,7.7,22.3z"/>
        <path fill="#201A17" d="M12.1,3L12.1,3c-1,0-1.9,0.6-2.4,1.6v0c-0.9,2-0.9,4.3,0,6.2c0.5,1,1.4,1.6,2.4,1.6h0
    c1.5,0,2.7-1.3,2.7-2.9V6C14.8,4.3,13.6,3,12.1,3z"/>
        <path fill="#201A17" d="M8.6,12.6c-0.8-1.4-2.4-1.9-3.8-1.2l-0.3,0.2c-1,0.5-1.6,1.6-1.6,2.8v1.5c0,0.8,0.3,1.6,0.8,2.2l0.5,0.5
    c0.5,0.6,1.3,0.9,2.1,0.9h1c1.2,0,2.4-0.9,2.8-2.2c0.3-0.9,0.2-1.8-0.3-2.6L8.6,12.6z"/>
        <path fill="#201A17" d="M22.1,4.6L22.1,4.6c-0.5-1-1.4-1.6-2.4-1.6h0C18.2,3,17,4.3,17,6v3.6c0,1.6,1.2,2.9,2.7,2.9h0
    c1,0,1.9-0.6,2.4-1.6C23,8.9,23,6.6,22.1,4.6z"/>
        <path fill="#201A17" d="M27.3,11.6L27,11.4c-1.4-0.7-3-0.2-3.8,1.2L22,14.8c-0.4,0.8-0.5,1.8-0.3,2.6c0.4,1.3,1.5,2.2,2.8,2.2h1
    c0.8,0,1.5-0.3,2.1-0.9l0.5-0.5c0.5-0.6,0.8-1.4,0.8-2.2v-1.5C28.9,13.2,28.3,12.2,27.3,11.6z"/>
    </symbol>
    <symbol id="construction" viewBox="0 0 32 32">
        <path fill="none" stroke="#000000" stroke-width="3" stroke-miterlimit="10" d="M28.4,17.4l-7.8-3.3c0,0,0,0-0.1,0l2.6-2
    c0,0,0.2,0,0.3,0h1.2c0.3,0,0.5-0.1,0.7-0.3L28.3,9c0.4-0.4,0.4-0.9,0-1.3l-4.5-4.3c-0.4-0.3-0.9-0.4-1.3-0.1l-4.2,3.4
    c-0.3,0.3-0.4,0.7-0.3,1l-5.5,4.4H3.9c-0.5,0-1,0.4-1,0.9v4.2c0,0.3,0.1,0.5,0.3,0.7l0.9,0.8l-1.5,1.2c-0.4,0.3-0.5,0.9-0.1,1.3
    l2.7,3.2c0.3,0.4,0.9,0.5,1.3,0.2L9,22.7l0.7,0.5l7.4,5.3c0.2,0.2,0.5,0.2,0.7,0.2L28.1,27c0.5-0.1,0.8-0.5,0.8-0.9v-7.9
    C28.9,17.9,28.7,17.5,28.4,17.4z M21.4,6.7L22.5,6c0.4-0.2,0.9-0.2,1.2,0.1l1.7,1.6c0.4,0.4,0.4,0.9,0,1.3l-0.7,0.6
    c-0.3,0.3-0.9,0.4-1.3,0.1l-2.1-1.5C20.8,7.8,20.8,7.1,21.4,6.7z"/>
        <path fill="#CB7A29" d="M28.4,17.4l-7.8-3.3c-0.2-0.1-0.4-0.1-0.6,0l-7.8,2l1.4-4H3.9c-0.5,0-1,0.4-1,0.9v4.2c0,0.3,0.1,0.5,0.3,0.7
    l6.4,5.3l7.4,5.3c0.2,0.2,0.5,0.2,0.7,0.2L28.1,27c0.5-0.1,0.8-0.5,0.8-0.9v-7.9C28.9,17.9,28.7,17.5,28.4,17.4z"/>
        <path fill="#C5C3C0" d="M18.3,7.4L2.7,19.8c-0.4,0.3-0.5,0.9-0.1,1.3l2.7,3.2c0.3,0.4,0.9,0.5,1.3,0.2l16.6-12.4L18.3,7.4z"/>
        <path fill="#CB7A29" d="M10.4,16.5l9.6-2.5c0.2-0.1,0.4,0,0.6,0l7.8,3.3c0.3,0.1,0.6,0.5,0.6,0.8v7.9c0,0.5-0.3,0.8-0.8,0.9
    l-10.4,1.7c-0.3,0-0.5,0-0.7-0.2l-7.4-5.3v-5.8C9.7,17,9.9,16.6,10.4,16.5z"/>
        <path fill="#CB7A29" d="M22.5,3.3l-4.2,3.4c-0.5,0.4-0.5,1.1,0,1.4l4.6,3.7c0.2,0.1,0.4,0.2,0.6,0.2h1.2c0.3,0,0.5-0.1,0.7-0.3
    L28.3,9c0.4-0.4,0.4-0.9,0-1.3l-4.5-4.3C23.4,3.1,22.9,3,22.5,3.3z M23.4,9.7l-2.1-1.5c-0.5-0.4-0.5-1.2,0-1.5L22.5,6
    c0.4-0.2,0.9-0.2,1.2,0.1l1.7,1.6c0.4,0.4,0.4,0.9,0,1.3l-0.7,0.6C24.4,10,23.8,10,23.4,9.7z"/>
    </symbol>
    <symbol id="ehp" viewBox="-208.3 332.3 99.9 99.9">
        <path fill="#eeeeee" stroke="#eeeeee" d="M-158.4,332.3c-27.5,0-49.9,22.4-49.9,49.9c0,8.6,2.2,17.1,6.5,24.6c4.1,7.3,10.1,13.5,17.3,18c7.9,4.8,16.9,7.4,26.1,7.4  c27.5,0,50-22.4,50-49.9C-108.4,354.7-130.8,332.3-158.4,332.3z M-158.4,420.6c-7.1,0-14-2-20-5.7c-5.6-3.4-10.2-8.2-13.3-13.8  c-3.3-5.7-5-12.2-5-18.8c0-21.1,17.2-38.3,38.3-38.3s38.4,17.2,38.4,38.3C-120,403.4-137.2,420.6-158.4,420.6z"/>
        <path fill="#eeeeee" stroke="#eeeeee" d="M-154.2,385.1l0-21.5c0-3.2-2.6-5.8-5.8-5.8s-5.8,2.6-5.8,5.8l0,23.9c0,0.3,0.1,0.6,0.2,0.9c0.1,0.4,0.1,0.9,0.3,1.3  c0.3,0.7,0.7,1.4,1.3,1.9l13.4,13.4c1.1,1.1,2.6,1.7,4.1,1.7c1.5,0,3-0.6,4.1-1.7c2.3-2.3,2.3-5.9,0-8.2L-154.2,385.1z"/>
    </symbol>
</svg>
